<svg width="81" height="80" viewBox="0 0 81 80" fill="none" xmlns="http://www.w3.org/2000/svg">
<g id="Secure Payments Icon">
<path id="Vector" d="M5.5 23.75C5.5 20.7663 6.68526 17.9048 8.79505 15.795C10.9048 13.6853 13.7663 12.5 16.75 12.5H64.25C67.2337 12.5 70.0952 13.6853 72.2049 15.795C74.3147 17.9048 75.5 20.7663 75.5 23.75V56.25C75.5 59.2337 74.3147 62.0952 72.2049 64.2049C70.0952 66.3147 67.2337 67.5 64.25 67.5H16.75C13.7663 67.5 10.9048 66.3147 8.79505 64.2049C6.68526 62.0952 5.5 59.2337 5.5 56.25V23.75ZM16.75 17.5C15.0924 17.5 13.5027 18.1585 12.3306 19.3306C11.1585 20.5027 10.5 22.0924 10.5 23.75V27.5H70.5V23.75C70.5 22.0924 69.8415 20.5027 68.6694 19.3306C67.4973 18.1585 65.9076 17.5 64.25 17.5H16.75ZM10.5 56.25C10.5 57.9076 11.1585 59.4973 12.3306 60.6694C13.5027 61.8415 15.0924 62.5 16.75 62.5H64.25C65.9076 62.5 67.4973 61.8415 68.6694 60.6694C69.8415 59.4973 70.5 57.9076 70.5 56.25V32.5H10.5V56.25ZM53 47.5H60.5C61.163 47.5 61.7989 47.7634 62.2678 48.2322C62.7366 48.7011 63 49.337 63 50C63 50.663 62.7366 51.2989 62.2678 51.7678C61.7989 52.2366 61.163 52.5 60.5 52.5H53C52.337 52.5 51.7011 52.2366 51.2322 51.7678C50.7634 51.2989 50.5 50.663 50.5 50C50.5 49.337 50.7634 48.7011 51.2322 48.2322C51.7011 47.7634 52.337 47.5 53 47.5Z" fill="#724E31"/>
</g>
</svg>
