<svg width="70" height="70" viewBox="0 0 70 70" fill="none" xmlns="http://www.w3.org/2000/svg">
<g id="fluent-mdl2:date-time">
<path id="Vector" d="M61.25 33.9404C62.6172 34.8747 63.8363 35.9342 64.9072 37.1191C65.9782 38.304 66.901 39.6029 67.6758 41.0156C68.4505 42.4284 69.0202 43.9209 69.3848 45.4932C69.7494 47.0654 69.9544 48.6719 70 50.3125C70 53.0241 69.4873 55.5762 68.4619 57.9688C67.4365 60.3613 66.0238 62.4463 64.2236 64.2236C62.4235 66.001 60.3385 67.4023 57.9688 68.4277C55.599 69.4531 53.0469 69.9772 50.3125 70C48.2389 70 46.2337 69.6924 44.2969 69.0771C42.36 68.4619 40.5827 67.5732 38.9648 66.4111C37.347 65.249 35.9115 63.8591 34.6582 62.2412C33.4049 60.6234 32.4365 58.8346 31.7529 56.875H4.375V4.375H13.125V0H17.5V4.375H48.125V0H52.5V4.375H61.25V33.9404ZM8.75 8.75V17.5H56.875V8.75H52.5V13.125H48.125V8.75H17.5V13.125H13.125V8.75H8.75ZM30.7275 52.5C30.6592 51.7936 30.625 51.0645 30.625 50.3125C30.625 48.3529 30.8984 46.4502 31.4453 44.6045C31.9922 42.7588 32.8239 41.0156 33.9404 39.375H30.625V35H35V37.9395C35.9342 36.7773 36.971 35.752 38.1104 34.8633C39.2497 33.9746 40.4801 33.2113 41.8018 32.5732C43.1234 31.9352 44.502 31.4567 45.9375 31.1377C47.373 30.8187 48.8314 30.6478 50.3125 30.625C52.5911 30.625 54.7786 31.001 56.875 31.7529V21.875H8.75V52.5H30.7275ZM50.3125 65.625C52.4316 65.625 54.4141 65.2262 56.2598 64.4287C58.1055 63.6312 59.7233 62.5374 61.1133 61.1475C62.5033 59.7575 63.597 58.1396 64.3945 56.2939C65.1921 54.4482 65.6022 52.4544 65.625 50.3125C65.625 48.1934 65.2262 46.2109 64.4287 44.3652C63.6312 42.5195 62.5374 40.9017 61.1475 39.5117C59.7575 38.1217 58.1396 37.028 56.2939 36.2305C54.4482 35.4329 52.4544 35.0228 50.3125 35C48.1934 35 46.2109 35.3988 44.3652 36.1963C42.5195 36.9938 40.9017 38.0876 39.5117 39.4775C38.1217 40.8675 37.028 42.4854 36.2305 44.3311C35.4329 46.1768 35.0228 48.1706 35 50.3125C35 52.4316 35.3988 54.4141 36.1963 56.2598C36.9938 58.1055 38.0876 59.7233 39.4775 61.1133C40.8675 62.5033 42.4854 63.597 44.3311 64.3945C46.1768 65.1921 48.1706 65.6022 50.3125 65.625ZM52.5 48.125H59.0625V52.5H48.125V39.375H52.5V48.125ZM13.125 35H17.5V39.375H13.125V35ZM21.875 35H26.25V39.375H21.875V35ZM21.875 26.25H26.25V30.625H21.875V26.25ZM13.125 43.75H17.5V48.125H13.125V43.75ZM21.875 43.75H26.25V48.125H21.875V43.75ZM35 30.625H30.625V26.25H35V30.625ZM43.75 30.625H39.375V26.25H43.75V30.625ZM52.5 30.625H48.125V26.25H52.5V30.625Z" fill="#523B29"/>
</g>
</svg>
