<svg width="85" height="84" viewBox="0 0 85 84" fill="none" xmlns="http://www.w3.org/2000/svg">
<g id="game-icons:tow-truck">
<path id="Vector" d="M13.6384 13.5614L10.3834 16.8164L32.1479 39.818V49.432H44.9448V41.0812L13.6384 13.5614ZM9.47117 20.1469V33.3211L10.1291 33.7641C11.8616 34.9125 12.5473 36.0773 12.7426 37.0125C12.9362 37.9641 12.672 38.7844 12.1109 39.457C10.9855 40.8187 8.84445 41.475 6.74117 39.3586L4.6543 41.4586C7.80102 44.5922 12.2225 43.9359 14.3783 41.3602C15.4578 40.0641 16.014 38.2594 15.6334 36.4219C15.297 34.7812 14.2027 33.1898 12.4243 31.8281V23.2641L9.47117 20.1469ZM51.8026 28.7602V52.3851H21.451C25.1588 53.3367 28.112 56.2406 29.1127 59.932H55.7893C57.0198 55.4039 61.1705 52.057 66.076 52.057C70.9815 52.057 75.1323 55.4039 76.3627 59.932H80.3495V46.0523L70.4729 28.7602H51.8026ZM57.7088 31.057H67.8971L76.8713 46.1508H57.7088V32.5336V31.057ZM4.96437 52.3851L6.85109 59.932H8.53273C9.5368 56.2406 12.485 53.3367 16.201 52.3851H4.96437ZM18.826 55.0101C14.5473 55.0101 11.1118 58.4391 11.1118 62.7211C11.1118 67.0031 14.5473 70.432 18.826 70.432C23.108 70.432 26.537 67.0031 26.537 62.7211C26.537 58.4391 23.108 55.0101 18.826 55.0101ZM66.076 55.0101C61.794 55.0101 58.3651 58.4391 58.3651 62.7211C58.3651 67.0031 61.794 70.432 66.076 70.432C70.358 70.432 73.787 67.0031 73.787 62.7211C73.787 58.4391 70.358 55.0101 66.076 55.0101Z" fill="#523B29"/>
</g>
</svg>
