<svg width="47" height="70" viewBox="0 0 47 70" fill="none" xmlns="http://www.w3.org/2000/svg">
<g id="Group">
<path id="Vector" fill-rule="evenodd" clip-rule="evenodd" d="M21.2905 0.0758009C7.714 0.920468 0.6195 8.6088 0 22.512H13.6955C13.867 17.696 16.555 14.0956 21.56 13.5648C26.4728 13.0433 31.1337 14.2135 32.5453 17.5723C34.0702 21.2006 30.6472 25.417 29.0197 27.1868C26.0073 30.4686 21.1143 32.8626 18.578 36.4035C16.0918 39.8731 15.6497 44.4383 15.4583 50.0255H27.5287C27.6978 46.4532 27.9358 43.0313 29.561 40.8112C32.2047 37.2038 36.1527 35.5133 39.4614 32.6643C42.6219 29.9413 45.9469 26.6595 46.5115 21.5798C48.2067 6.37697 35.7969 -0.829533 21.2905 0.0758009Z" fill="#523B29"/>
<path id="Vector_2" d="M21.6009 70C25.8097 70 29.2216 66.6398 29.2216 62.4948C29.2216 58.3498 25.8097 54.9896 21.6009 54.9896C17.3921 54.9896 13.9802 58.3498 13.9802 62.4948C13.9802 66.6398 17.3921 70 21.6009 70Z" fill="#523B29"/>
</g>
</svg>
