<svg width="81" height="80" viewBox="0 0 81 80" fill="none" xmlns="http://www.w3.org/2000/svg">
<path d="M49.8334 26.6666L53.8334 30.6666L31.1667 53.3333L27.1667 49.3333L49.8334 26.6666ZM13.8334 13.3333H67.1667C70.8667 13.3333 73.8334 16.3 73.8334 20V33.3333C72.0652 33.3333 70.3696 34.0357 69.1193 35.2859C67.8691 36.5362 67.1667 38.2319 67.1667 40C67.1667 41.7681 67.8691 43.4638 69.1193 44.714C70.3696 45.9643 72.0652 46.6666 73.8334 46.6666V60C73.8334 63.7 70.8667 66.6666 67.1667 66.6666H13.8334C12.0652 66.6666 10.3696 65.9643 9.11931 64.714C7.86907 63.4638 7.16669 61.7681 7.16669 60V46.6666C10.8667 46.6666 13.8334 43.7 13.8334 40C13.8334 38.2319 13.131 36.5362 11.8807 35.2859C10.6305 34.0357 8.9348 33.3333 7.16669 33.3333V20C7.16669 18.2319 7.86907 16.5362 9.11931 15.2859C10.3696 14.0357 12.0652 13.3333 13.8334 13.3333ZM13.8334 20V28.4666C15.8589 29.6346 17.5412 31.3155 18.7109 33.3402C19.8805 35.3648 20.4963 37.6618 20.4963 40C20.4963 42.3382 19.8805 44.6352 18.7109 46.6598C17.5412 48.6844 15.8589 50.3653 13.8334 51.5333V60H67.1667V51.5333C65.1411 50.3653 63.4588 48.6844 62.2892 46.6598C61.1195 44.6352 60.5037 42.3382 60.5037 40C60.5037 37.6618 61.1195 35.3648 62.2892 33.3402C63.4588 31.3155 65.1411 29.6346 67.1667 28.4666V20H13.8334ZM32.1667 26.6666C34.9334 26.6666 37.1667 28.9 37.1667 31.6666C37.1667 34.4333 34.9334 36.6666 32.1667 36.6666C29.4 36.6666 27.1667 34.4333 27.1667 31.6666C27.1667 28.9 29.4 26.6666 32.1667 26.6666ZM48.8334 43.3333C51.6 43.3333 53.8334 45.5666 53.8334 48.3333C53.8334 51.1 51.6 53.3333 48.8334 53.3333C46.0667 53.3333 43.8334 51.1 43.8334 48.3333C43.8334 45.5666 46.0667 43.3333 48.8334 43.3333Z" fill="#724E31"/>
</svg>
