<svg width="80" height="80" viewBox="0 0 80 80" fill="none" xmlns="http://www.w3.org/2000/svg">
<g id="Secure Payments Icon">
<path id="Vector" d="M5 23.75C5 20.7663 6.18526 17.9048 8.29505 15.795C10.4048 13.6853 13.2663 12.5 16.25 12.5H63.75C66.7337 12.5 69.5952 13.6853 71.7049 15.795C73.8147 17.9048 75 20.7663 75 23.75V56.25C75 59.2337 73.8147 62.0952 71.7049 64.2049C69.5952 66.3147 66.7337 67.5 63.75 67.5H16.25C13.2663 67.5 10.4048 66.3147 8.29505 64.2049C6.18526 62.0952 5 59.2337 5 56.25V23.75ZM16.25 17.5C14.5924 17.5 13.0027 18.1585 11.8306 19.3306C10.6585 20.5027 10 22.0924 10 23.75V27.5H70V23.75C70 22.0924 69.3415 20.5027 68.1694 19.3306C66.9973 18.1585 65.4076 17.5 63.75 17.5H16.25ZM10 56.25C10 57.9076 10.6585 59.4973 11.8306 60.6694C13.0027 61.8415 14.5924 62.5 16.25 62.5H63.75C65.4076 62.5 66.9973 61.8415 68.1694 60.6694C69.3415 59.4973 70 57.9076 70 56.25V32.5H10V56.25ZM52.5 47.5H60C60.663 47.5 61.2989 47.7634 61.7678 48.2322C62.2366 48.7011 62.5 49.337 62.5 50C62.5 50.663 62.2366 51.2989 61.7678 51.7678C61.2989 52.2366 60.663 52.5 60 52.5H52.5C51.837 52.5 51.2011 52.2366 50.7322 51.7678C50.2634 51.2989 50 50.663 50 50C50 49.337 50.2634 48.7011 50.7322 48.2322C51.2011 47.7634 51.837 47.5 52.5 47.5Z" fill="#724E31"/>
</g>
</svg>
