<svg width="81" height="80" viewBox="0 0 81 80" fill="none" xmlns="http://www.w3.org/2000/svg">
<g id="Stopwatch Icon">
<path id="Vector" d="M40.5 66.6666C34.3116 66.6666 28.3767 64.2083 24.0008 59.8325C19.625 55.4566 17.1667 49.5217 17.1667 43.3333C17.1667 37.1449 19.625 31.21 24.0008 26.8342C28.3767 22.4583 34.3116 20 40.5 20C46.6884 20 52.6233 22.4583 56.9992 26.8342C61.375 31.21 63.8333 37.1449 63.8333 43.3333C63.8333 49.5217 61.375 55.4566 56.9992 59.8325C52.6233 64.2083 46.6884 66.6666 40.5 66.6666ZM63.9333 24.6333L68.6667 19.9C67.1667 18.2 65.6667 16.6666 63.9667 15.2L59.2333 20C54.0667 15.8 47.5667 13.3333 40.5 13.3333C32.5435 13.3333 24.9129 16.494 19.2868 22.1201C13.6607 27.7462 10.5 35.3768 10.5 43.3333C10.5 51.2898 13.6607 58.9204 19.2868 64.5465C24.9129 70.1726 32.5435 73.3333 40.5 73.3333C57.1667 73.3333 70.5 59.9 70.5 43.3333C70.5 36.2666 68.0333 29.7666 63.9333 24.6333ZM37.1667 46.6666H43.8333V26.6666H37.1667M50.5 3.33331H30.5V9.99998H50.5V3.33331Z" fill="#724E31"/>
</g>
</svg>
