<svg width="81" height="80" viewBox="0 0 81 80" fill="none" xmlns="http://www.w3.org/2000/svg">
<g id="tdesign:money">
<path id="Vector" d="M40.4997 41.6667C37.4055 41.6667 34.438 42.8958 32.2501 45.0837C30.0622 47.2717 28.833 50.2391 28.833 53.3333C28.833 56.4275 30.0622 59.395 32.2501 61.5829C34.438 63.7708 37.4055 65 40.4997 65C43.5939 65 46.5613 63.7708 48.7493 61.5829C50.9372 59.395 52.1663 56.4275 52.1663 53.3333C52.1663 50.2391 50.9372 47.2717 48.7493 45.0837C46.5613 42.8958 43.5939 41.6667 40.4997 41.6667ZM35.4997 53.3333C35.4997 52.0072 36.0265 50.7355 36.9641 49.7978C37.9018 48.8601 39.1736 48.3333 40.4997 48.3333C41.8258 48.3333 43.0975 48.8601 44.0352 49.7978C44.9729 50.7355 45.4997 52.0072 45.4997 53.3333C45.4997 54.6594 44.9729 55.9312 44.0352 56.8689C43.0975 57.8065 41.8258 58.3333 40.4997 58.3333C39.1736 58.3333 37.9018 57.8065 36.9641 56.8689C36.0265 55.9312 35.4997 54.6594 35.4997 53.3333Z" fill="#523B29"/>
<path id="Vector_2" d="M58.92 17.0533L48.3233 2.19666L9.36 33.3233L7.2 33.3V33.3333H5.5V73.3333H75.5V33.3333H72.2933L65.9133 14.67L58.92 17.0533ZM65.25 33.3333H31.8233L56.72 24.8467L61.7933 23.2233L65.25 33.3333ZM52.3333 19.3L26.6333 28.06L46.9867 11.8L52.3333 19.3ZM12.1667 60.5633V46.0967C13.573 45.5983 14.8504 44.7924 15.9057 43.7377C16.9609 42.683 17.7676 41.406 18.2667 40H62.7333C63.2322 41.4065 64.0387 42.684 65.094 43.7393C66.1493 44.7946 67.4268 45.6011 68.8333 46.1V60.5667C67.4268 61.0656 66.1493 61.872 65.094 62.9273C64.0387 63.9826 63.2322 65.2601 62.7333 66.6666H18.2733C17.7739 65.2589 16.9665 63.9804 15.9101 62.9245C14.8536 61.8686 13.5747 61.0619 12.1667 60.5633Z" fill="#523B29"/>
</g>
</svg>
